<?xml version="1.0" standalone="no"?>
<!DOCTYPE svg PUBLIC "-//W3C//DTD SVG 20010904//EN"
 "http://www.w3.org/TR/2001/REC-SVG-20010904/DTD/svg10.dtd">
<svg version="1.0" xmlns="http://www.w3.org/2000/svg"
 width="700.000000pt" height="700.000000pt" viewBox="0 0 700.000000 700.000000"
 preserveAspectRatio="xMidYMid meet">
<metadata>
Created by potrace 1.14, written by Peter Selinger 2001-2017
</metadata>
<g transform="translate(0.000000,700.000000) scale(0.100000,-0.100000)"
fill="#000000" stroke="none">
<path d="M5985 5533 c-281 -60 -513 -252 -619 -513 -84 -205 -79 -486 10 -658
12 -23 -4 -39 -388 -422 l-399 -399 -37 16 c-110 47 -195 64 -330 65 -112 1
-259 -29 -335 -68 l-27 -15 -160 161 -159 160 19 45 c71 165 82 378 28 560
-87 297 -336 526 -643 590 -75 15 -230 21 -290 10 -73 -13 -93 -18 -145 -35
-170 -54 -332 -177 -438 -332 -18 -26 -32 -50 -32 -54 0 -4 -6 -15 -13 -23
-29 -34 -75 -173 -93 -281 -21 -129 12 -359 67 -463 8 -14 -57 -84 -389 -416
-302 -303 -402 -397 -413 -390 -28 18 -146 52 -223 64 -203 31 -414 -14 -586
-124 -65 -42 -61 -39 -140 -116 -231 -224 -310 -582 -196 -895 47 -127 153
-275 258 -357 64 -50 162 -113 176 -113 5 0 26 -8 48 -19 109 -52 329 -74 469
-46 350 68 612 334 678 690 14 72 15 206 3 285 -7 44 -50 180 -65 208 -6 10
103 125 391 413 l398 398 46 -19 c43 -19 125 -42 189 -55 59 -11 231 -6 304
10 40 8 100 26 133 39 l60 24 158 -158 159 -159 -25 -62 c-85 -208 -72 -476
32 -682 169 -334 535 -519 904 -458 315 52 594 308 675 620 43 168 32 362 -30
520 l-24 63 394 394 c238 239 401 394 412 394 11 0 23 -4 28 -9 13 -11 128
-47 180 -56 65 -11 245 -9 310 4 298 60 543 277 640 566 33 96 39 143 40 270
0 121 -9 177 -40 268 -96 275 -316 477 -600 553 -84 22 -281 26 -370 7z"/>
</g>
</svg>
