<svg width="488" height="488" viewBox="0 0 488 488" fill="none" xmlns="http://www.w3.org/2000/svg">
<path d="M481.8 452.8L341.8 312.7C369.4 279.6 386 237.3 386 191.1C386 85.7 299.5 0 193.1 0C86.7 0 0 85.8 0 191.2C0 296.6 86.5 382.3 192.9 382.3C238.1 382.3 279.7 366.8 312.7 340.9L453.2 481.4C461.4 489.6 473.6 489.6 481.8 481.4C490 473.2 490 461 481.8 452.8ZM41 191.2C41 108.4 109.2 41.1 192.9 41.1C276.6 41.1 344.8 108.4 344.8 191.2C344.8 274 276.6 341.3 192.9 341.3C109.2 341.3 41 273.9 41 191.2Z" fill="#007FFF"/>
</svg>
